<?xml version="1.0" encoding="UTF-8" standalone="no" ?>
<!DOCTYPE svg PUBLIC "-//W3C//DTD SVG 1.1//EN" "http://www.w3.org/Graphics/SVG/1.1/DTD/svg11.dtd">
<svg xmlns="http://www.w3.org/2000/svg" xmlns:xlink="http://www.w3.org/1999/xlink" version="1.1" width="1080" height="1080" viewBox="0 0 1080 1080" xml:space="preserve">
<desc>Created with Fabric.js 5.2.4</desc>
<defs>
</defs>
<g transform="matrix(1 0 0 1 540 540)" id="c0255ae3-f6cf-488f-8068-f643d50f1c63"  >
<rect style="stroke: none; stroke-width: 1; stroke-dasharray: none; stroke-linecap: butt; stroke-dashoffset: 0; stroke-linejoin: miter; stroke-miterlimit: 4; fill: rgb(255,255,255); fill-rule: nonzero; opacity: 1; visibility: hidden;" vector-effect="non-scaling-stroke"  x="-540" y="-540" rx="0" ry="0" width="1080" height="1080" />
</g>
<g transform="matrix(1 0 0 1 540 540)" id="6ceec658-0be0-4d19-b56c-b9cc920783d3"  >
</g>
<g transform="matrix(1 0 0 1.24 540 559.12)"  >
<g style="" vector-effect="non-scaling-stroke"   >
		<g transform="matrix(0.13 0 0 -0.13 -5.39 -24.67)"  >
<path style="stroke: none; stroke-width: 1; stroke-dasharray: none; stroke-linecap: butt; stroke-dashoffset: 0; stroke-linejoin: miter; stroke-miterlimit: 4; fill: rgb(0,0,0); fill-rule: nonzero; opacity: 1;" vector-effect="non-scaling-stroke"  transform=" translate(-665.76, -770)" d="M 273 1118 C 228 1087 183 1047 165 1022 L 135 978 L 133 757 C 131 617 134 523 141 502 C 164 432 243 370 309 370 C 345 370 397 410 422 457 C 433 478 455 509 471 526 C 487 543 497 559 494 563 C 486 571 518 577 615 586 C 746 597 762 595 790 562 C 804 546 831 506 851 473 C 891 407 906 400 1002 400 C 1071 400 1122 442 1146 516 C 1155 546 1169 570 1176 570 C 1195 570 1200 612 1199 745 C 1198 882 1185 950 1153 999 C 1140 1018 1130 1038 1130 1044 C 1130 1066 1061 1096 985 1106 C 974 1107 948 1115 928 1124 C 907 1133 871 1140 848 1140 C 824 1140 767 1147 720 1155 C 671 1164 575 1170 493 1170 L 352 1170 L 273 1118 z M 933 959 C 946 938 922 889 891 874 C 840 848 811 902 846 956 C 859 975 870 980 893 978 C 909 976 927 968 933 959 z M 473 956 C 476 948 476 932 473 920 C 468 903 461 899 432 902 C 390 906 370 931 389 954 C 406 974 466 975 473 956 z" stroke-linecap="round" />
</g>
		<g transform="matrix(0.13 0 0 -0.13 75.18 69.43)"  >
<path style="stroke: none; stroke-width: 1; stroke-dasharray: none; stroke-linecap: butt; stroke-dashoffset: 0; stroke-linejoin: miter; stroke-miterlimit: 4; fill: rgb(0,0,0); fill-rule: nonzero; opacity: 1;" vector-effect="non-scaling-stroke"  transform=" translate(-1270.05, -64.29)" d="M 1267 123 C 1256 113 1259 0 1270 0 C 1276 0 1280 28 1280 65 C 1280 130 1279 136 1267 123 z" stroke-linecap="round" />
</g>
</g>
</g>
</svg>